<?xml version="1.0" standalone="no"?>
<!DOCTYPE svg PUBLIC "-//W3C//DTD SVG 20010904//EN"
 "http://www.w3.org/TR/2001/REC-SVG-20010904/DTD/svg10.dtd">
<svg version="1.0" xmlns="http://www.w3.org/2000/svg"
 width="850.000000pt" height="850.000000pt" viewBox="0 0 850.000000 850.000000"
 preserveAspectRatio="xMidYMid meet">
<metadata>
Created by potrace 1.14, written by Peter Selinger 2001-2017
</metadata>
<g transform="translate(0.000000,850.000000) scale(0.100000,-0.100000)"
fill="#000000" stroke="none">
<path d="M3000 7750 l0 -250 -500 0 -500 0 0 -250 0 -250 -500 0 -500 0 0
-250 0 -250 -250 0 -250 0 0 -250 0 -250 -250 0 -250 0 0 -1500 0 -1500 250 0
250 0 0 -250 0 -250 250 0 250 0 0 -250 0 -250 500 0 500 0 0 -250 0 -250 500
0 500 0 0 -250 0 -250 750 0 750 0 0 -250 0 -250 500 0 500 0 0 250 0 250 500
0 500 0 0 250 0 250 500 0 500 0 0 250 0 250 250 0 250 0 0 250 0 250 250 0
250 0 0 1500 0 1500 -250 0 -250 0 0 250 0 250 -250 0 -250 0 0 250 0 250
-500 0 -500 0 0 250 0 250 -500 0 -500 0 0 250 0 250 -500 0 -500 0 0 250 0
250 -750 0 -750 0 0 -250z m-2000 -2500 l0 -250 500 0 500 0 0 -250 0 -250
500 0 500 0 0 -250 0 -250 750 0 750 0 0 -250 0 -250 500 0 500 0 0 250 0 250
500 0 500 0 0 250 0 250 500 0 500 0 0 250 0 250 250 0 250 0 0 -500 0 -500
-250 0 -250 0 0 -250 0 -250 250 0 250 0 0 -500 0 -500 -250 0 -250 0 0 -250
0 -250 -500 0 -500 0 0 -250 0 -250 -500 0 -500 0 0 -250 0 -250 -500 0 -500
0 0 250 0 250 -750 0 -750 0 0 250 0 250 -500 0 -500 0 0 250 0 250 -500 0
-500 0 0 250 0 250 -250 0 -250 0 0 1250 0 1250 250 0 250 0 0 -250z"/>
<path d="M1500 3750 l0 -250 250 0 250 0 0 250 0 250 -250 0 -250 0 0 -250z"/>
<path d="M2500 3250 l0 -250 250 0 250 0 0 250 0 250 -250 0 -250 0 0 -250z"/>
<path d="M6500 3250 l0 -250 -500 0 -500 0 0 -250 0 -250 -250 0 -250 0 0
-250 0 -250 250 0 250 0 0 250 0 250 500 0 500 0 0 250 0 250 500 0 500 0 0
250 0 250 -500 0 -500 0 0 -250z"/>
<path d="M3500 2750 l0 -250 500 0 500 0 0 250 0 250 -500 0 -500 0 0 -250z"/>
</g>
</svg>
